<svg xmlns="http://www.w3.org/2000/svg" viewBox="0 0 49 43.97"><defs><style>.cls-1{stroke:#000;stroke-miterlimit:10;stroke-width:2px;}</style></defs><g id="Capa_2" data-name="Capa 2"><g id="Capa_1-2" data-name="Capa 1"><g id="Layer_1" data-name="Layer 1"><path class="cls-1" d="M44.36,22.46a12.67,12.67,0,0,0,0-17.77A12.28,12.28,0,0,0,35.56,1h0a12.3,12.3,0,0,0-8.81,3.69L24.5,7,22.25,4.69a12.35,12.35,0,0,0-17.61,0,12.67,12.67,0,0,0,0,17.77L24.5,42.55ZM6,6.06a10.41,10.41,0,0,1,14.82,0L24.5,9.75l3.65-3.69A10.41,10.41,0,0,1,43,6.06a10.72,10.72,0,0,1,0,15L24.5,39.77,6,21.09A10.72,10.72,0,0,1,6,6.06Z"/></g></g></g></svg>